<?xml version="1.0" encoding="utf-8"?>
<!-- Generator: Adobe Illustrator 22.1.0, SVG Export Plug-In . SVG Version: 6.00 Build 0)  -->
<svg version="1.1" id="Livello_1" xmlns="http://www.w3.org/2000/svg" xmlns:xlink="http://www.w3.org/1999/xlink" x="0px" y="0px"
	 viewBox="0 0 64 64" style="enable-background:new 0 0 64 64;" xml:space="preserve">
<style type="text/css">
	.st0{fill:#FAB714;}
	.st1{fill:#001620;}
	.st2{fill:#3965AB;}
	.st3{fill:#54B54E;}
	.st4{fill:#A2D9DC;}
	.st5{clip-path:url(#SVGID_2_);fill:url(#SVGID_3_);}
	.st6{clip-path:url(#SVGID_5_);fill:#FFFFFF;}
	.st7{fill:#E1F2F6;}
	.st8{clip-path:url(#SVGID_7_);fill:url(#SVGID_8_);}
	.st9{clip-path:url(#SVGID_10_);fill:#FFFFFF;}
	.st10{clip-path:url(#SVGID_12_);fill:url(#SVGID_13_);}
	.st11{fill:#FFFFFF;}
	.st12{fill:#231F20;}
</style>
<g id="Layer_2">
</g>
<g>
	<g>
		<circle class="st0" cx="32" cy="32" r="32"/>
	</g>
	<g>
		<g>
			<path class="st1" d="M40.2,7.9c0.1,0.4,0.6,0.7,1,0.6s0.7-0.6,0.6-1c-0.1-0.4-0.6-0.7-1-0.6C40.4,7,40.1,7.4,40.2,7.9"/>
			<path class="st1" d="M19.8,10c0,0.5-0.3,0.8-0.8,0.9c-0.5,0-0.8-0.3-0.9-0.8c0-0.5,0.3-0.8,0.8-0.9S19.8,9.5,19.8,10"/>
			<path class="st1" d="M18.9,10.9c-0.2,0-0.4-0.1-0.6-0.3C18.1,10.5,18,10.3,18,10s0.1-0.5,0.3-0.7C18.5,9.1,18.7,9,19,9
				c0.3,0,0.5,0.1,0.7,0.3S20,9.7,20,10s-0.1,0.5-0.3,0.7C19.5,10.9,19.3,11,19,11C19,10.9,18.9,10.9,18.9,10.9 M19,9.3L19,9.3
				c-0.3,0-0.5,0.1-0.6,0.2c-0.1,0.1-0.2,0.3-0.2,0.5s0.1,0.4,0.2,0.5s0.3,0.2,0.5,0.2s0.4-0.1,0.5-0.2c0.1-0.1,0.2-0.3,0.2-0.5
				s-0.1-0.4-0.2-0.5S19.2,9.3,19,9.3"/>
			<path class="st1" d="M41.2,8.6c-0.5,0.1-0.9-0.2-1.1-0.7c-0.2-0.5,0.1-1,0.6-1.2s1,0.1,1.2,0.6s-0.1,1-0.6,1.2
				C41.3,8.5,41.2,8.6,41.2,8.6 M40.4,7.8c0.1,0.4,0.5,0.6,0.9,0.5s0.6-0.5,0.5-0.9s-0.5-0.6-0.9-0.5C40.5,7.1,40.2,7.5,40.4,7.8"/>
			<path class="st2" d="M18.1,37.5c-0.4,1.7-2.4,1.4-5,0.2c-3.2-1.5-7.7-6.5-6.7-10.6l0,0c0.1-0.4,0.2-0.7,0.4-1.1
				c2.2-4.2,10.8,7.5,11.3,9.4C18.2,36.3,18.3,37,18.1,37.5"/>
			<path class="st3" d="M18.1,37.5c-0.4,1.7-2.4,1.4-5,0.2c-3.2-1.5-7.7-6.5-6.7-10.6C7.8,30.6,11.1,36.2,18.1,37.5"/>
			<path class="st4" d="M11,27.7c0.8,0.8,1.9,2.3,1.6,2.6c-0.3,0.3-2-0.7-3.1-2.1c-0.8-0.9-1.5-2.3-1.2-2.5
				C8.5,25.4,10,26.6,11,27.7"/>
			<path class="st2" d="M41.5,35.8l-6,7.7l0.4-7.1c-0.9,0.3-1.8,0.5-2.8,0.6c-2.9,0.4-5.8,0-8.3-0.9c-2.5,0.8-4.4,2.6-4.4,6.1
				c0,2.8,0.8,5.6,2.3,8c2.4,4,6.4,7,11.3,7c7.9,0,12.8-8.3,12.8-15.4c0-0.7-0.1-1.3-0.2-1.9C46,37.5,44,36.3,41.5,35.8"/>
			<path class="st3" d="M46.8,41.9c0,7.1-5,15.4-12.8,15.4c-4.9,0-8.9-3-11.3-7c4.9,2.3,18.8,7.1,23.9-10.3
				C46.8,40.6,46.8,41.3,46.8,41.9"/>
			<path class="st2" d="M57.8,47.1c-0.1,3.3-0.8,5.2-3,4.2c-0.4-0.2-0.8-0.4-1.2-0.8C52,49.3,45.3,36.4,50,36.2
				c1.2,0,2.3,0.4,3.3,1.2C56.1,39.6,57.8,44.3,57.8,47.1"/>
			<path class="st3" d="M57.8,47.1c-0.1,3.3-0.8,5.2-3,4.2c0.7-1.7,1.3-5.7-1.4-13.9C56.1,39.6,57.8,44.3,57.8,47.1"/>
			<path class="st4" d="M51.4,42.4c0.9,2,2.2,5.5,1.8,5.7c-0.3,0.2-2.1-2.4-3-5.3c-0.5-1.6-0.8-3.6-0.6-3.7
				C49.9,39,51.1,41.8,51.4,42.4"/>
			<path class="st1" d="M18.8,10.4c-0.1,0.6-0.2,1.2-0.3,1.9c-0.1,0.6-0.1,1.3-0.1,1.9c0,0.6,0,1.3,0.1,1.9c0,0.6,0.1,1.2,0.3,1.9
				L18,18.1c-0.1-0.6-0.1-1.3-0.1-1.9s0-1.3,0.1-1.9c0.1-0.6,0.2-1.3,0.3-1.9c0.1-0.6,0.3-1.3,0.5-1.9V10.4z"/>
			<path class="st1" d="M17.7,18.2v-0.1c-0.1-0.6-0.1-1.3-0.1-2c0-0.6,0-1.3,0.1-1.9c0.1-0.6,0.1-1.3,0.3-1.9
				c0.1-0.7,0.3-1.3,0.5-1.9v-0.1l0.4,0.1v0.1c-0.1,0.5-0.2,1.2-0.3,1.9c-0.1,0.6-0.1,1.3-0.1,1.9c0,0.7,0,1.3,0.1,1.9
				c0,0.6,0.1,1.3,0.3,1.8v0.1L17.7,18.2z M18.6,10.7c-0.1,0.5-0.3,1-0.4,1.6s-0.2,1.3-0.3,1.9c-0.1,0.7-0.1,1.3-0.1,1.9
				s0,1.3,0.1,1.8l0.6-0.1c-0.1-0.6-0.2-1.1-0.2-1.7c-0.1-0.6-0.1-1.2-0.1-1.9c0-0.6,0-1.3,0.1-1.9C18.4,11.7,18.5,11.2,18.6,10.7"
				/>
			<path class="st1" d="M41.4,8c0.3,0.5,0.6,1.1,0.9,1.7c0.3,0.6,0.5,1.2,0.7,1.7c0.2,0.6,0.4,1.2,0.6,1.8c0.2,0.6,0.3,1.2,0.4,1.8
				l0.8-0.2c-0.2-0.6-0.3-1.3-0.5-1.9c-0.2-0.6-0.5-1.2-0.7-1.8c-0.3-0.6-0.6-1.2-0.9-1.7c-0.3-0.6-0.7-1.1-1-1.6L41.4,8z"/>
			<path class="st1" d="M43.8,15.2v-0.1c-0.1-0.6-0.2-1.2-0.4-1.8c-0.1-0.6-0.3-1.2-0.6-1.8c-0.2-0.6-0.4-1.2-0.7-1.7
				c-0.3-0.6-0.6-1.2-0.9-1.7l0-0.1l0.4-0.3l0.1,0.1c0.4,0.5,0.7,1,1.1,1.6c0.3,0.6,0.6,1.2,0.9,1.7c0.3,0.6,0.5,1.2,0.7,1.8
				s0.4,1.3,0.5,1.9v0.1L43.8,15.2z M41.6,8.2c0.2,0.4,0.5,0.9,0.7,1.4c0.3,0.6,0.5,1.2,0.7,1.8s0.4,1.2,0.6,1.8
				c0.2,0.6,0.3,1.2,0.4,1.7l0.6-0.1c-0.1-0.5-0.3-1.1-0.5-1.7c-0.2-0.6-0.4-1.2-0.7-1.8s-0.6-1.1-0.9-1.7C42.2,9,41.9,8.6,41.6,8.2
				"/>
			<g>
				<g>
					<defs>
						<path id="SVGID_1_" d="M18.3,23.3c0,6.1,6.1,11.1,13.6,11.1s13.6-5,13.6-11.1s-6.1-11.1-13.6-11.1
							C24.5,12.3,18.3,17.2,18.3,23.3"/>
					</defs>
					<clipPath id="SVGID_2_">
						<use xlink:href="#SVGID_1_"  style="overflow:visible;"/>
					</clipPath>
					
						<linearGradient id="SVGID_3_" gradientUnits="userSpaceOnUse" x1="-645.5112" y1="-117.0677" x2="-645.1952" y2="-117.0677" gradientTransform="matrix(86.3728 0 0 86.3728 55772.9688 10134.8164)">
						<stop  offset="0" style="stop-color:#FFFFFF"/>
						<stop  offset="0.785" style="stop-color:#CACCCE"/>
						<stop  offset="1" style="stop-color:#CACCCE"/>
					</linearGradient>
					<rect x="18.3" y="12.3" class="st5" width="27.3" height="22.1"/>
				</g>
			</g>
			<path class="st2" d="M43.7,14.6L43.7,14.6c-3.1-3.3-8-5.1-13.3-4.4c-5.2,0.7-9.6,3.7-11.7,7.6l0,0c-2.8,0.4-4.8,2.9-4.4,5.7
				c0.3,2.1,1.7,3.7,3.6,4.2c2.2,5.8,8.7,9.4,15.9,8.5c0.9-0.1,1.8-0.3,2.6-0.5L36.1,42L44,30.9l0,0c1.7-2,2.8-4.4,3-6.9
				c1.7-1,2.7-2.9,2.4-5C49.1,16.2,46.5,14.2,43.7,14.6 M33.2,34c-6.7,0.9-12.8-3.1-13.6-8.8c-0.7-5.7,4.1-11.1,10.9-12
				c6.7-0.9,12.8,3.1,13.6,8.8C44.8,27.8,40,33.1,33.2,34"/>
			<path class="st3" d="M47,24.1c1.7-1,2.7-2.9,2.4-5c-0.4-2.8-2.9-4.8-5.7-4.4 M18.7,17.9L18.7,17.9c-2.8,0.4-4.8,2.9-4.4,5.7
				c0.3,2.1,1.7,3.7,3.6,4.2"/>
			<g>
				<g>
					<g>
						<defs>
							<rect id="SVGID_4_" x="22.1" y="18.3" width="8" height="8"/>
						</defs>
						<clipPath id="SVGID_5_">
							<use xlink:href="#SVGID_4_"  style="overflow:visible;"/>
						</clipPath>
						<path class="st6" d="M30.1,21.8c0.3,2.2-1.3,4.2-3.5,4.5s-4.2-1.3-4.5-3.5c-0.3-2.2,1.3-4.2,3.5-4.5S29.8,19.6,30.1,21.8"/>
					</g>
				</g>
			</g>
			<path class="st7" d="M29,21.9c0.2,1.6-0.9,3-2.5,3.2s-3-0.9-3.2-2.5s0.9-3,2.5-3.2C27.3,19.2,28.8,20.4,29,21.9"/>
			<g>
				<g>
					<defs>
						<path id="SVGID_6_" d="M25.8,19.9c-1.3,0.2-2.3,1.4-2.1,2.7c0.2,1.3,1.4,2.3,2.7,2.1c1.3-0.2,2.3-1.4,2.1-2.7
							c-0.2-1.2-1.2-2.1-2.4-2.1C26,19.9,25.9,19.9,25.8,19.9"/>
					</defs>
					<clipPath id="SVGID_7_">
						<use xlink:href="#SVGID_6_"  style="overflow:visible;"/>
					</clipPath>
					
						<linearGradient id="SVGID_8_" gradientUnits="userSpaceOnUse" x1="-620.7798" y1="-85.0711" x2="-620.4639" y2="-85.0711" gradientTransform="matrix(15.1785 -1.9756 1.9756 15.1785 9614.3242 87.5163)">
						<stop  offset="0" style="stop-color:#000000"/>
						<stop  offset="1" style="stop-color:#002B40"/>
					</linearGradient>
					<polygon class="st8" points="22.9,20 28.6,19.2 29.3,24.8 23.6,25.5 					"/>
				</g>
			</g>
			<path class="st7" d="M27.6,21.5c0.1,0.5-0.3,0.9-0.8,1s-0.9-0.3-1-0.8s0.3-0.9,0.8-1S27.5,21,27.6,21.5"/>
			<path class="st7" d="M26.4,24.1c0,0.2-0.1,0.4-0.3,0.4c-0.2,0-0.4-0.1-0.4-0.3c0-0.2,0.1-0.4,0.3-0.4
				C26.2,23.8,26.3,23.9,26.4,24.1"/>
			<path class="st7" d="M25.1,23.8c0,0.1-0.1,0.2-0.2,0.2s-0.2-0.1-0.2-0.2s0.1-0.2,0.2-0.2C25,23.6,25.1,23.7,25.1,23.8"/>
			<g>
				<g>
					<g>
						<defs>
							<rect id="SVGID_9_" x="32.9" y="16.9" width="8" height="8"/>
						</defs>
						<clipPath id="SVGID_10_">
							<use xlink:href="#SVGID_9_"  style="overflow:visible;"/>
						</clipPath>
						<path class="st9" d="M40.8,20.4c0.3,2.2-1.3,4.2-3.5,4.5c-2.2,0.3-4.2-1.3-4.5-3.5s1.3-4.2,3.5-4.5
							C38.5,16.6,40.6,18.2,40.8,20.4"/>
					</g>
				</g>
			</g>
			<path class="st7" d="M39.7,20.5c0.2,1.6-0.9,3-2.5,3.2s-3-0.9-3.2-2.5s0.9-3,2.5-3.2S39.5,19,39.7,20.5"/>
			<g>
				<g>
					<defs>
						<path id="SVGID_11_" d="M36.6,18.5c-1.3,0.2-2.3,1.4-2.1,2.7c0.2,1.3,1.4,2.3,2.7,2.1c1.3-0.2,2.3-1.4,2.1-2.7
							c-0.2-1.2-1.2-2.1-2.4-2.1C36.8,18.5,36.7,18.5,36.6,18.5"/>
					</defs>
					<clipPath id="SVGID_12_">
						<use xlink:href="#SVGID_11_"  style="overflow:visible;"/>
					</clipPath>
					
						<linearGradient id="SVGID_13_" gradientUnits="userSpaceOnUse" x1="-622.3126" y1="-85.0707" x2="-621.9967" y2="-85.0707" gradientTransform="matrix(15.1785 -1.9756 1.9756 15.1785 9648.333 83.0896)">
						<stop  offset="0" style="stop-color:#000000"/>
						<stop  offset="1" style="stop-color:#002B40"/>
					</linearGradient>
					<polygon class="st10" points="33.7,18.6 39.4,17.8 40.1,23.4 34.4,24.1 					"/>
				</g>
			</g>
			<path class="st7" d="M38.3,20.1c0.1,0.5-0.3,0.9-0.8,1s-0.9-0.3-1-0.8s0.3-0.9,0.8-1S38.3,19.6,38.3,20.1"/>
			<path class="st7" d="M37.1,22.7c0,0.2-0.1,0.4-0.3,0.4s-0.4-0.1-0.4-0.3c0-0.2,0.1-0.4,0.3-0.4C36.9,22.4,37.1,22.5,37.1,22.7"/>
			<path class="st7" d="M35.8,22.4c0,0.1-0.1,0.2-0.2,0.2c-0.1,0-0.2-0.1-0.2-0.2s0.1-0.2,0.2-0.2C35.7,22.2,35.8,22.3,35.8,22.4"/>
			<path class="st11" d="M36.8,27.4c0,0.5-0.3,0.9-0.8,1l-6.6,1.5c-0.5,0.1-1-0.1-1.2-0.6c-0.1-0.2-0.2-0.4-0.2-0.6
				c0-0.1,0-0.1,0-0.2s0.1-0.1,0.1-0.1l8.4-1.9c0.1,0,0.1,0,0.2,0c0.1,0,0.1,0.1,0.1,0.1C36.8,26.9,36.8,27.1,36.8,27.4"/>
			<path class="st12" d="M36.8,27.4c0.1,2.1-1.4,4-3.5,4.5s-4.2-0.6-5.1-2.5c0.2,0.4,0.7,0.6,1.2,0.5l6.6-1.5
				C36.5,28.3,36.8,27.9,36.8,27.4"/>
		</g>
		<g>
			<path class="st11" d="M25.2,44.9h0.5v1.7h0.8v0.6h-1.4v-2.3H25.2z"/>
			<path class="st11" d="M26.9,44.9h0.5v0.4h-0.5V44.9z M26.9,45.6h0.5v1.6h-0.5V45.6z"/>
			<path class="st11" d="M27.7,45.6h0.4v0.3c0.1-0.1,0.1-0.2,0.2-0.2s0.1-0.1,0.2-0.1s0.2,0.1,0.3,0.2c0.1,0.1,0.1,0.3,0.1,0.5v1
				h-0.5v-0.9c0-0.1,0-0.2,0-0.2l-0.1-0.1c-0.1,0-0.1,0-0.1,0.1s-0.1,0.2-0.1,0.3v0.8h-0.5v-1.7H27.7z"/>
			<path class="st11" d="M30.7,46.5h-1c0,0.1,0,0.2,0.1,0.2c0,0.1,0.1,0.1,0.2,0.1h0.1l0.1-0.1l0.5,0.1c-0.1,0.2-0.2,0.3-0.3,0.4
				c-0.1,0.1-0.2,0.1-0.4,0.1c-0.2,0-0.3,0-0.4-0.1s-0.2-0.2-0.2-0.3c-0.1-0.1-0.1-0.3-0.1-0.5c0-0.3,0.1-0.5,0.2-0.6
				s0.3-0.2,0.5-0.2s0.3,0,0.4,0.1s0.2,0.2,0.2,0.3C30.7,46.1,30.7,46.2,30.7,46.5L30.7,46.5z M30.3,46.2c0-0.1,0-0.2-0.1-0.3
				s-0.1-0.1-0.2-0.1s-0.1,0-0.2,0.1c0,0,0,0.1-0.1,0.2L30.3,46.2L30.3,46.2z"/>
			<path class="st11" d="M31.4,46.1L31,46c0-0.1,0-0.2,0.1-0.2c0-0.1,0.1-0.1,0.1-0.2c0,0,0.1-0.1,0.2-0.1s0.2,0,0.2,0
				c0.1,0,0.3,0,0.3,0c0.1,0,0.2,0.1,0.2,0.1s0.1,0.1,0.1,0.2c0,0.1,0,0.2,0,0.2v0.7c0,0.1,0,0.1,0,0.2c0,0,0,0.1,0,0.2h-0.4V47
				v-0.1c-0.1,0.1-0.1,0.1-0.2,0.2c-0.1,0-0.2,0.1-0.3,0.1c-0.1,0-0.3,0-0.3-0.1c0-0.1,0-0.2,0-0.3c0-0.1,0-0.2,0.1-0.3
				s0.2-0.1,0.3-0.2c0.2,0,0.3-0.1,0.3-0.1c0.1,0,0.1,0,0.2-0.1c0-0.1,0-0.1,0-0.2h-0.1c-0.1,0-0.1,0-0.2,0
				C31.5,46,31.5,46,31.4,46.1z M31.9,46.4c-0.1,0-0.1,0.1-0.2,0.1s-0.2,0.1-0.2,0.1v0.1v0.1h0.1c0.1,0,0.1,0,0.1-0.1l0.1-0.1
				c0,0,0-0.1,0-0.2v0H31.9z"/>
			<path class="st11" d="M34.6,46.8H34l-0.1,0.4h-0.5l0.6-2.3h0.6l0.6,2.3h-0.6V46.8z M34.5,46.3l-0.2-0.8l-0.2,0.8H34.5z"/>
			<path class="st11" d="M35.4,45.6h0.4v0.2c0.1-0.1,0.1-0.2,0.2-0.2s0.1-0.1,0.2-0.1c0.1,0,0.2,0,0.2,0.1c0.1,0,0.1,0.1,0.1,0.2
				c0.1-0.1,0.1-0.2,0.2-0.2c0.1,0,0.1-0.1,0.2-0.1c0.1,0,0.2,0.1,0.3,0.2c0.1,0.1,0.1,0.3,0.1,0.5v1h-0.5v-0.9c0-0.1,0-0.1,0-0.2
				C37,46,37,46,36.9,46s-0.1,0-0.1,0.1s-0.1,0.1-0.1,0.3v0.8h-0.5v-0.9c0-0.1,0-0.1,0-0.1s0-0.1-0.1-0.1H36c0-0.1,0-0.1,0,0
				s-0.1,0.1-0.1,0.3v0.8h-0.5V45.6z"/>
			<path class="st11" d="M37.9,44.9h0.5v0.4h-0.5V44.9z M37.9,45.6h0.5v1.6h-0.5V45.6z"/>
			<path class="st11" d="M39.7,46.5l0.5,0.1c0,0.1-0.1,0.2-0.1,0.3C40,47,40,47.1,39.9,47.1c-0.1,0.1-0.2,0.1-0.3,0.1s-0.2,0-0.3,0
				s-0.2-0.1-0.2-0.2S39,46.8,39,46.7s-0.1-0.2-0.1-0.4s0-0.3,0.1-0.4c0-0.1,0.1-0.2,0.1-0.2c0.1-0.1,0.1-0.1,0.2-0.1
				c0.1-0.1,0.2-0.1,0.4-0.1s0.4,0,0.5,0.1s0.2,0.2,0.2,0.4L40,46.1c0-0.1,0-0.1-0.1-0.2l-0.1-0.1c-0.1,0-0.1,0-0.2,0.1
				s-0.1,0.2-0.1,0.3S39.5,46.4,39.7,46.5c-0.1,0.1,0,0.1,0.1,0.1c0.1,0,0.1,0,0.2-0.1C39.6,46.7,39.6,46.6,39.7,46.5z"/>
			<path class="st11" d="M40.8,46.1L40.4,46c0-0.1,0-0.2,0.1-0.2c0-0.1,0.1-0.1,0.1-0.2c0,0,0.1-0.1,0.2-0.1c0.1,0,0.2,0,0.2,0
				c0.1,0,0.3,0,0.3,0c0.1,0,0.2,0.1,0.2,0.1s0.1,0.1,0.1,0.2c0,0.1,0,0.2,0,0.2v0.7c0,0.1,0,0.1,0,0.2c0,0,0,0.1,0,0.2h-0.4V47
				v-0.1C41.1,47,41.1,47,41,47.1c-0.1,0-0.2,0.1-0.3,0.1s-0.3,0-0.3-0.1c-0.1-0.1-0.1-0.2-0.1-0.3s0-0.2,0.1-0.3s0.2-0.1,0.3-0.2
				c0.2,0,0.3-0.1,0.3-0.1c0.1,0,0.1,0,0.2-0.1c0-0.1,0-0.1,0-0.2h-0.1c-0.1,0-0.1,0-0.2,0C40.9,46,40.8,46,40.8,46.1z M41.2,46.4
				c-0.1,0-0.1,0.1-0.2,0.1c-0.1,0-0.2,0.1-0.2,0.1v0.1v0.1h0.1c0.1,0,0.1,0,0.1-0.1l0.1-0.1c0,0,0-0.1,0-0.2v0H41.2z"/>
		</g>
	</g>
</g>
</svg>
